<?xml version="1.0" encoding="UTF-8"?>
<!DOCTYPE svg PUBLIC "-//W3C//DTD SVG 1.1//EN" "http://www.w3.org/Graphics/SVG/1.1/DTD/svg11.dtd">
<!-- Creator: CorelDRAW X5 -->
<svg xmlns="http://www.w3.org/2000/svg" xml:space="preserve" width="36.7817mm" height="35.8864mm" style="shape-rendering:geometricPrecision; text-rendering:geometricPrecision; image-rendering:optimizeQuality; fill-rule:evenodd; clip-rule:evenodd"
viewBox="0 0 23.0749 22.5132"
 xmlns:xlink="http://www.w3.org/1999/xlink">
 <defs>
  <style type="text/css">
   <![CDATA[
    .str0 {stroke:#2B2A29;stroke-width:0.125469}
    .fil0 {fill:#07ebeb}
   ]]>
  </style>
 </defs>
 <g id="Layer_x0020_1">
  <metadata id="CorelCorpID_0Corel-Layer"/>
  <path class="fil0 str0" d="M1.02126 9.64388l1.35977 0.934872 4.80692 -4.5839 -2.21491 -1.69967 -3.95178 5.34869zm14.5377 -3.90925l1.32257 -3.26132 -6.55972 -1.56686 -0.653319 3.50561 2.92663 1.6572 2.96384 -0.334627zm-6.2995 -0.61618l-0.987945 0.892338 0.0159346 0 0.653319 0.504638 2.23618 -0.260286 -1.91748 -1.13669zm-3.76584 -1.23223l2.19897 1.62533 1.17383 -1.08355 0.669253 -3.18692 -4.04206 2.64514zm-2.64514 7.28738l1.6572 3.52155 2.81509 -1.33851 1.17383 -6.33664 -0.674523 -0.520509 -4.9716 4.67411zm0.350561 4.82818l2.61327 4.6423 0.164616 -0.987945 -1.88028 -4.08459 -0.897607 0.430234zm3.48968 3.96772l-0.20715 1.35977 6.43225 0.377098 0.111542 -2.25738 -6.33664 0.520509zm-3.78717 -4.56257l0.89767 -0.40903 -1.66253 -3.67556 -0.913542 -0.594913 1.6784 4.6795zm1.84841 -0.148744l1.84314 3.96772 6.46945 -0.557711 0.111542 -1.50845 -5.55591 -3.24539 -2.86823 1.34384zm12.3918 -5.34869l-0.132809 -0.377161 -4.86005 -2.73542 -2.96384 0.350561 -1.17383 6.20916 5.46024 3.18692 2.75669 -2.44326 0.913605 -4.1908zm-1.09949 5.19995l-2.19897 2.01309 -0.111542 1.48725 1.62 -0.164678 0.69052 -3.33566zm-0.371828 4.09519l-1.97589 0.191215 -0.0743406 2.17777 4.54663 -1.06235 -2.4964 -1.30664zm2.36365 -9.5979l-0.111542 0.504575 0.913542 2.01309 3.43127 1.23223 -0.467436 -5.59304 -3.76584 1.84314zm-0.61618 -6.74567l-1.35971 3.14972 1.23223 2.72482 0.334627 0.223084 3.91464 -1.90149 -4.12179 -4.19613zm5.59304 11.1117l-3.61715 6.94749 -6.05515 1.52972 -7.51047 -0.430234 -3.48441 -6.05515 -2.27332 -6.27823 4.56263 -6.09768 5.36996 -3.52155 7.51047 1.76874 5.01413 5.20001 0.483308 6.93688zm-5.96481 0.297425l-0.913605 4.33954 2.9479 1.52972 3.09131 -6.01801 -3.48435 -1.36504 -1.64126 1.51379zm0.690458 -3.13378l-0.483308 2.05023 1.00388 -0.876403 -0.520572 -1.17383zm-2.14051 -4.76978l-2.01309 0.28149 2.85229 1.58286 -0.839201 -1.86435z"/>
 </g>
</svg>
